<svg width="20" height="20" viewBox="0 0 20 20" fill="none" xmlns="http://www.w3.org/2000/svg">
<path d="M6.50033 1.66669H13.5003C16.1697 1.66669 18.3337 3.83065 18.3337 6.50002V13.5C18.3337 16.1694 16.1697 18.3333 13.5003 18.3333H6.50033C3.83095 18.3333 1.66699 16.1694 1.66699 13.5V6.50002C1.66699 3.83065 3.83095 1.66669 6.50033 1.66669ZM6.33366 3.33334C4.6768 3.33334 3.33366 4.67649 3.33366 6.33334V13.6667C3.33366 15.3235 4.6768 16.6667 6.33366 16.6667H13.667C15.3238 16.6667 16.667 15.3235 16.667 13.6667V6.33334C16.667 4.67649 15.3238 3.33334 13.667 3.33334H6.33366ZM14.3753 4.58334C14.9507 4.58334 15.417 5.04971 15.417 5.625C15.417 6.2003 14.9507 6.66667 14.3753 6.66667C13.8 6.66667 13.3337 6.2003 13.3337 5.625C13.3337 5.04971 13.8 4.58334 14.3753 4.58334ZM10.0003 5.83334C12.3015 5.83334 14.167 7.69882 14.167 10C14.167 12.3012 12.3015 14.1667 10.0003 14.1667C7.69913 14.1667 5.83366 12.3012 5.83366 10C5.83366 7.69882 7.69913 5.83334 10.0003 5.83334ZM10.0003 7.5C8.61958 7.5 7.50033 8.61934 7.50033 10C7.50033 11.3808 8.61958 12.5 10.0003 12.5C11.3811 12.5 12.5003 11.3808 12.5003 10C12.5003 8.61934 11.3811 7.5 10.0003 7.5Z" fill="#0B1D26"/>
</svg>
