<svg width="20" height="20" viewBox="0 0 20 20" fill="none" xmlns="http://www.w3.org/2000/svg">
<path d="M18.7162 5.01031C18.0749 5.29477 17.3855 5.48701 16.6622 5.57345C17.4004 5.13084 17.9676 4.42998 18.2346 3.59481C17.5435 4.00469 16.7782 4.30231 15.9635 4.46266C15.3112 3.76759 14.3818 3.33333 13.3531 3.33333C11.378 3.33333 9.77661 4.93455 9.77661 6.90962C9.77661 7.18991 9.80828 7.46288 9.86928 7.72466C6.89695 7.5755 4.26166 6.15169 2.49778 3.98792C2.18991 4.51612 2.01355 5.13046 2.01355 5.7859C2.01355 7.0267 2.6449 8.12135 3.60456 8.76274C3.01836 8.74408 2.46684 8.58325 1.9847 8.31538C1.98435 8.33032 1.98435 8.34525 1.98435 8.36033C1.98435 10.0932 3.21715 11.5386 4.8532 11.8672C4.55311 11.9489 4.23715 11.9927 3.91099 11.9927C3.68054 11.9927 3.4565 11.9702 3.23809 11.9285C3.69321 13.3492 5.01398 14.3833 6.57899 14.4121C5.355 15.3714 3.81293 15.9432 2.13731 15.9432C1.84864 15.9432 1.56396 15.9262 1.28418 15.8931C2.8669 16.9078 4.7468 17.5 6.76645 17.5C13.3447 17.5 16.942 12.0504 16.942 7.32431C16.942 7.16928 16.9385 7.01504 16.9316 6.86162C17.6304 6.35738 18.2368 5.72751 18.7162 5.01031Z" fill="#0B1D26"/>
</svg>
